<?xml version="1.0" encoding="UTF-8" standalone="no"?>
<!-- Created with Inkscape (http://www.inkscape.org/) -->

<svg
   xmlns:dc="http://purl.org/dc/elements/1.1/"
   xmlns:cc="http://creativecommons.org/ns#"
   xmlns:rdf="http://www.w3.org/1999/02/22-rdf-syntax-ns#"
   xmlns:svg="http://www.w3.org/2000/svg"
   xmlns="http://www.w3.org/2000/svg"
   xmlns:sodipodi="http://sodipodi.sourceforge.net/DTD/sodipodi-0.dtd"
   xmlns:inkscape="http://www.inkscape.org/namespaces/inkscape"
   width="1600mm"
   height="1600mm"
   viewBox="0 0 5669.2912 5669.2914"
   id="svg2"
   version="1.1"
   inkscape:version="0.91 r13725"
   sodipodi:docname="jnr-logo.svg"
   inkscape:export-filename="C:\Users\Nolan\Documents\jnr-logo-800.png"
   inkscape:export-xdpi="20.32"
   inkscape:export-ydpi="20.32">
  <defs
     id="defs4" />
  <sodipodi:namedview
     id="base"
     pagecolor="#ffffff"
     bordercolor="#666666"
     borderopacity="1.0"
     inkscape:pageopacity="0.0"
     inkscape:pageshadow="2"
     inkscape:zoom="0.125"
     inkscape:cx="1506.9605"
     inkscape:cy="3017.9069"
     inkscape:document-units="px"
     inkscape:current-layer="layer1"
     showgrid="false"
     showguides="false"
     inkscape:guide-bbox="true"
     inkscape:snap-bbox="true"
     inkscape:bbox-paths="true"
     inkscape:bbox-nodes="true"
     inkscape:snap-bbox-edge-midpoints="true"
     inkscape:snap-bbox-midpoints="true"
     inkscape:object-paths="true"
     inkscape:snap-intersection-paths="true"
     inkscape:object-nodes="true"
     inkscape:snap-smooth-nodes="true"
     inkscape:snap-object-midpoints="true"
     inkscape:snap-center="true"
     inkscape:snap-text-baseline="true"
     inkscape:snap-page="true"
     inkscape:window-width="1280"
     inkscape:window-height="719"
     inkscape:window-x="1920"
     inkscape:window-y="119"
     inkscape:window-maximized="1"
     inkscape:snap-global="true"
     fit-margin-top="100"
     fit-margin-left="100"
     fit-margin-right="100"
     fit-margin-bottom="100">
    <sodipodi:guide
       position="1954.0086,2577.366"
       orientation="1,0"
       id="guide4182" />
    <sodipodi:guide
       position="2394.3292,2577.366"
       orientation="0,1"
       id="guide4184" />
    <sodipodi:guide
       position="3274.9635,3214.1106"
       orientation="0,1"
       id="guide4258" />
    <sodipodi:guide
       position="2394.3292,2577.366"
       orientation="1,0"
       id="guide4260" />
    <sodipodi:guide
       position="3711.3113,3214.1106"
       orientation="1,0"
       id="guide4262" />
    <sodipodi:guide
       position="3274.9623,3214.1106"
       orientation="1,0"
       id="guide4264" />
    <sodipodi:guide
       position="3274.963,2457.6878"
       orientation="0,1"
       id="guide4266" />
    <sodipodi:guide
       position="2394.3301,3102.3325"
       orientation="0,1"
       id="guide4268" />
  </sodipodi:namedview>
  <metadata
     id="metadata7">
    <rdf:RDF>
      <cc:Work
         rdf:about="">
        <dc:format>image/svg+xml</dc:format>
        <dc:type
           rdf:resource="http://purl.org/dc/dcmitype/StillImage" />
        <dc:title />
      </cc:Work>
    </rdf:RDF>
  </metadata>
  <g
     inkscape:label="Layer 1"
     inkscape:groupmode="layer"
     id="layer1"
     transform="translate(-4049.7615,4828.5142)">
    <rect
       style="opacity:1;fill:#ffffff;fill-opacity:1;stroke:none;stroke-width:250;stroke-miterlimit:4;stroke-dasharray:none;stroke-opacity:1"
       id="rect4379"
       width="5669.2915"
       height="5669.2915"
       x="4049.7612"
       y="-4832.5142"
       inkscape:export-filename="C:\Users\Nolan\Documents\jnr-logo-1024-padded.png"
       inkscape:export-xdpi="40.639999"
       inkscape:export-ydpi="40.639999" />
    <rect
       style="opacity:0.97000002;fill:#2a2c2f;fill-opacity:1;stroke:none;stroke-width:250;stroke-miterlimit:4;stroke-dasharray:none;stroke-opacity:1"
       id="rect4200"
       width="1344"
       height="1344"
       x="-14.238708"
       y="-5079.2227" />
    <rect
       style="opacity:0.97000002;fill:#d7ff36;fill-opacity:1;stroke:none;stroke-width:250;stroke-miterlimit:4;stroke-dasharray:none;stroke-opacity:1"
       id="rect4200-1"
       width="1344"
       height="1344"
       x="-14.238708"
       y="-3735.2227" />
    <rect
       style="opacity:0.97000002;fill:#ff2e50;fill-opacity:1;stroke:none;stroke-width:250;stroke-miterlimit:4;stroke-dasharray:none;stroke-opacity:1"
       id="rect4200-1-4"
       width="1344"
       height="1344"
       x="-14.238708"
       y="-2391.2227" />
    <path
       style="color:#000000;font-style:normal;font-variant:normal;font-weight:normal;font-stretch:normal;font-size:medium;line-height:normal;font-family:sans-serif;text-indent:0;text-align:start;text-decoration:none;text-decoration-line:none;text-decoration-style:solid;text-decoration-color:#000000;letter-spacing:normal;word-spacing:normal;text-transform:none;direction:ltr;block-progression:tb;writing-mode:lr-tb;baseline-shift:baseline;text-anchor:start;white-space:normal;clip-rule:nonzero;display:inline;overflow:visible;visibility:visible;opacity:1;isolation:auto;mix-blend-mode:normal;color-interpolation:sRGB;color-interpolation-filters:linearRGB;solid-color:#000000;solid-opacity:1;fill:#f0f0f0;fill-opacity:1;fill-rule:nonzero;stroke:#eeeeee;stroke-width:375;stroke-linecap:butt;stroke-linejoin:miter;stroke-miterlimit:4;stroke-dasharray:none;stroke-dashoffset:0;stroke-opacity:1;color-rendering:auto;image-rendering:auto;shape-rendering:auto;text-rendering:auto;enable-background:accumulate"
       d="m 6003.7683,-3956.0562 0,1242.4238 0,935.1074 0,719.9493 c -162.8346,-29.5412 -319.2806,-88.7727 -461.3633,-175.127 l 67.3243,-92.6621 -83.0332,-58.4258 c -104.2098,-73.3261 -196.4574,-162.3192 -273.4766,-263.8301 l -60.2441,-79.4043 -172.4434,129.9454 -389.2031,293.2832 61.5078,80.0429 c 296.2808,385.57626 722.4867,687.24283 1314.2031,766.30853 l 0.6289,0.084 0.6309,0.0762 c 307.8318,37.1612 620.0964,0.3517 910.8496,-107.3692 l 0.1562,-0.0586 0.1582,-0.0586 c 144.9111,-54.2418 282.716,-125.6441 410.4922,-212.625 l 431.1153,746.712904 0,-2392.847534 0,-488.1231 c 164.2633,29.2943 322.0996,88.7832 465.3379,175.8399 l -67.3243,92.6621 83.0332,58.4257 c 104.2098,73.3261 196.4574,162.3192 273.4766,263.8301 l 60.2441,79.4043 172.4434,-129.9453 389.2031,-293.2832 -61.5078,-80.043 c -296.2808,-385.5763 -722.4868,-687.2429 -1314.2031,-766.3086 l -0.6289,-0.084 -0.6309,-0.076 c -76.9568,-9.2902 -154.1929,-13.9588 -231.3008,-14.0508 -231.3206,-0.2755 -461.4825,40.6294 -679.5468,121.4199 l -0.1582,0.059 -0.1582,0.059 c -143.2909,53.6356 -406.1954,209.7246 -406.1954,209.7246 z"
       id="path4221-5-7"
       inkscape:connector-curvature="0"
       sodipodi:nodetypes="ccccccscccccccccccccccccsccccccccsccccc" />
    <path
       inkscape:connector-curvature="0"
       style="fill:#ff00ff;fill-opacity:1;stroke:none;stroke-width:120;stroke-miterlimit:4;stroke-dasharray:none;stroke-dashoffset:0;stroke-opacity:1"
       d="m 5118.9156,-708.64956 a 1761.2745,1761.2745 0 0 0 51.0839,28.13914 1761.2745,1761.2745 0 0 1 -51.0839,-28.13914 z"
       id="path4456" />
    <path
       style="opacity:1;fill:#2a2c2f;fill-opacity:1;stroke:none;stroke-width:150;stroke-miterlimit:4;stroke-dasharray:none;stroke-dashoffset:0;stroke-opacity:1"
       d="m 7324.722,-3116.2043 436.3466,0 0,801.6746 -436.3484,0 z"
       id="rect4326-7"
       inkscape:connector-curvature="0"
       sodipodi:nodetypes="ccccc" />
    <path
       style="opacity:1;fill:#2a2c2f;fill-opacity:1;stroke:none;stroke-width:150;stroke-miterlimit:4;stroke-dasharray:none;stroke-dashoffset:0;stroke-opacity:1"
       d="m 6003.7683,-1887.7851 440.3206,0 -2e-4,1000.4745 -440.3202,0 z"
       id="rect4326"
       inkscape:connector-curvature="0"
       sodipodi:nodetypes="ccccc" />
    <path
       style="color:#000000;clip-rule:nonzero;display:inline;overflow:visible;visibility:visible;opacity:1;isolation:auto;mix-blend-mode:normal;color-interpolation:sRGB;color-interpolation-filters:linearRGB;solid-color:#000000;solid-opacity:1;fill:#2a2c2f;fill-opacity:1;fill-rule:nonzero;stroke:#2a2c2f;stroke-width:200;stroke-linecap:butt;stroke-linejoin:miter;stroke-miterlimit:4;stroke-dasharray:none;stroke-dashoffset:0;stroke-opacity:1;color-rendering:auto;image-rendering:auto;shape-rendering:auto;text-rendering:auto;enable-background:accumulate"
       d="m 7529.0937,-3426.2826 c -219.4531,-0.2614 -437.8071,38.5445 -644.6875,115.1914 -156.9361,58.7431 -305.0855,138.708 -440.3164,237.6641 l 0,2073.2519 0,47.50586 a 1453.4116,1453.4116 0 0 1 -203.2364,15.832 1453.4116,1453.4116 0 0 1 -840.8105,-271.05266 l 69.1074,-95.1172 a 1336.3782,1336.3782 0 0 1 -295.5957,-285.1699 l -92.8418,69.9609 -308.584,232.5332 c 283.7338,369.24766 682.8521,652.58296 1248.1543,728.11916 292.043,35.2552 588.2825,0.3345 864.1231,-101.8614 156.9361,-58.7431 305.0855,-138.7079 440.3164,-237.664 l 0,-2073.25196 0,-47.5058 a 1453.4116,1453.4116 0 0 1 203.2363,-15.8321 1453.4116,1453.4116 0 0 1 840.8105,271.0528 l -69.1074,95.1171 a 1336.3782,1336.3782 0 0 1 295.5957,285.17 l 92.8418,-69.961 308.584,-232.5332 c -283.7338,-369.2477 -682.8521,-652.5829 -1248.1543,-728.1191 -73.0107,-8.8138 -146.2845,-13.2429 -219.4355,-13.3301 z"
       id="path4221-5"
       inkscape:connector-curvature="0" />
    <path
       inkscape:connector-curvature="0"
       style="color:#000000;clip-rule:nonzero;display:inline;overflow:visible;visibility:visible;opacity:1;isolation:auto;mix-blend-mode:normal;color-interpolation:sRGB;color-interpolation-filters:linearRGB;solid-color:#000000;solid-opacity:1;fill:#ff2e50;fill-opacity:1;fill-rule:nonzero;stroke:none;stroke-width:500.00006104;stroke-linecap:butt;stroke-linejoin:miter;stroke-miterlimit:4;stroke-dasharray:none;stroke-dashoffset:0;stroke-opacity:1;color-rendering:auto;image-rendering:auto;shape-rendering:auto;text-rendering:auto;enable-background:accumulate"
       d="m 6884.4061,-3311.0913 c -156.9361,58.7431 -305.0855,138.708 -440.3164,237.6641 l 0,2073.252 0,47.50576 a 1453.4116,1453.4116 0 0 1 -203.2363,15.832 1453.4116,1453.4116 0 0 1 -840.8106,-271.05266 l 69.1074,-95.1172 a 1336.3782,1336.3782 0 0 1 -295.5957,-285.1699 l -92.8418,69.9609 -308.584,232.5332 c 283.7339,369.24766 682.8522,652.58296 1248.1543,728.11916 292.043,35.2552 588.2825,0.3346 864.1231,-101.8613 l 0,-166.6153 0,-312.52336 0,-2172.5274 z"
       id="path4221" />
    <path
       inkscape:connector-curvature="0"
       style="color:#000000;clip-rule:nonzero;display:inline;overflow:visible;visibility:visible;opacity:1;isolation:auto;mix-blend-mode:normal;color-interpolation:sRGB;color-interpolation-filters:linearRGB;solid-color:#000000;solid-opacity:1;fill:#ffffff;fill-opacity:0.15686275;fill-rule:nonzero;stroke:none;stroke-width:500.00006104;stroke-linecap:butt;stroke-linejoin:miter;stroke-miterlimit:4;stroke-dasharray:none;stroke-dashoffset:0;stroke-opacity:1;color-rendering:auto;image-rendering:auto;shape-rendering:auto;text-rendering:auto;enable-background:accumulate"
       d="m 6661.7596,-3210.3588 c -75.5795,40.4544 -148.3269,86.1894 -217.6699,136.9316 l 0,2073.252 0,47.50576 217.6699,164.8731 0,-2422.56246 z"
       id="path4221-6-3-1" />
    <path
       inkscape:connector-curvature="0"
       style="color:#000000;clip-rule:nonzero;display:inline;overflow:visible;visibility:visible;opacity:1;isolation:auto;mix-blend-mode:normal;color-interpolation:sRGB;color-interpolation-filters:linearRGB;solid-color:#000000;solid-opacity:1;fill:#d7ff36;fill-opacity:1;fill-rule:nonzero;stroke:none;stroke-width:500.00006104;stroke-linecap:butt;stroke-linejoin:miter;stroke-miterlimit:4;stroke-dasharray:none;stroke-dashoffset:0;stroke-opacity:1;color-rendering:auto;image-rendering:auto;shape-rendering:auto;text-rendering:auto;enable-background:accumulate"
       d="m 6884.4063,-665.42514 c 156.9361,-58.7431 305.0855,-138.708 440.3164,-237.6641 l 0,-2073.25196 0,-47.5058 a 1453.4116,1453.4116 0 0 1 203.2363,-15.832 1453.4116,1453.4116 0 0 1 840.8107,271.0527 l -69.1074,95.1172 a 1336.3782,1336.3782 0 0 1 295.5957,285.1699 l 92.8418,-69.9609 308.5839,-232.5332 c -283.7338,-369.2477 -682.8521,-652.583 -1248.1543,-728.1192 -292.043,-35.2552 -588.2825,-0.3346 -864.1231,101.8613 l 0,166.6153 0,312.5234 0,2172.52736 z"
       id="path4221-8" />
    <path
       inkscape:connector-curvature="0"
       style="color:#000000;clip-rule:nonzero;display:inline;overflow:visible;visibility:visible;opacity:1;isolation:auto;mix-blend-mode:normal;color-interpolation:sRGB;color-interpolation-filters:linearRGB;solid-color:#000000;solid-opacity:1;fill:#000000;fill-opacity:0.07843138;fill-rule:nonzero;stroke:none;stroke-width:500.00006104;stroke-linecap:butt;stroke-linejoin:miter;stroke-miterlimit:4;stroke-dasharray:none;stroke-dashoffset:0;stroke-opacity:1;color-rendering:auto;image-rendering:auto;shape-rendering:auto;text-rendering:auto;enable-background:accumulate"
       d="m 7107.0528,-766.15769 c 75.5795,-40.4544 148.3269,-86.1894 217.6699,-136.9316 l 0,-2073.25201 0,-47.5058 -217.6699,-164.873 0,2422.56241 z"
       id="path4221-6-3-1-7" />
    <path
       inkscape:connector-curvature="0"
       style="color:#000000;clip-rule:nonzero;display:inline;overflow:visible;visibility:visible;opacity:1;isolation:auto;mix-blend-mode:normal;color-interpolation:sRGB;color-interpolation-filters:linearRGB;solid-color:#000000;solid-opacity:1;fill:#000000;fill-opacity:0.03921569;fill-rule:nonzero;stroke:none;stroke-width:500.00006104;stroke-linecap:butt;stroke-linejoin:miter;stroke-miterlimit:4;stroke-dasharray:none;stroke-dashoffset:0;stroke-opacity:1;color-rendering:auto;image-rendering:auto;shape-rendering:auto;text-rendering:auto;enable-background:accumulate"
       d="m 8688.5119,-2765.2201 a 1657.8035,1657.8035 0 0 0 -1160.5529,-478.8515 1657.8035,1657.8035 0 0 0 -420.9062,55.3515 l 217.6699,164.8731 a 1453.4116,1453.4116 0 0 1 203.2363,-15.832 1453.4116,1453.4116 0 0 1 840.8107,271.0527 l 319.7422,3.4062 z"
       id="path4221-6-3-7" />
    <path
       inkscape:connector-curvature="0"
       style="color:#000000;clip-rule:nonzero;display:inline;overflow:visible;visibility:visible;opacity:1;isolation:auto;mix-blend-mode:normal;color-interpolation:sRGB;color-interpolation-filters:linearRGB;solid-color:#000000;solid-opacity:1;fill:#ffffff;fill-opacity:0.43137255;fill-rule:nonzero;stroke:none;stroke-width:500.00006104;stroke-linecap:butt;stroke-linejoin:miter;stroke-miterlimit:4;stroke-dasharray:none;stroke-dashoffset:0;stroke-opacity:1;color-rendering:auto;image-rendering:auto;shape-rendering:auto;text-rendering:auto;enable-background:accumulate"
       d="m 8579.7228,-2407.4564 a 1336.3782,1336.3782 0 0 0 -41.8047,-48.8691 1336.3782,1336.3782 0 0 1 41.8047,48.8691 z m -118.7558,-130.2207 227.5449,-227.543 -319.7422,-3.4062 -69.1074,95.1172 a 1336.3782,1336.3782 0 0 1 161.3047,135.832 z m 390.7519,-43.918 a 1657.8035,1657.8035 0 0 0 -79.3887,-93.789 1657.8035,1657.8035 0 0 1 79.3887,93.789 z m -79.3887,-93.789 a 1657.8035,1657.8035 0 0 0 -83.8085,-89.8262 1657.8035,1657.8035 0 0 1 83.8085,89.8262 z"
       id="path4221-6-3-6-8" />
    <path
       style="fill:#2a2c2f;fill-opacity:1;stroke:none;stroke-width:120;stroke-miterlimit:4;stroke-dasharray:none;stroke-dashoffset:0;stroke-opacity:1"
       d="m 6003.7683,-3956.0553 0,2168.2702 440.3206,0 9e-4,-524.9665 1316.9806,2281.068726 0,-2383.585826 -436.3466,-9.261 6e-4,756.4228 z"
       id="path4229"
       inkscape:connector-curvature="0"
       sodipodi:nodetypes="ccccccccc" />
    <rect
       style="opacity:1;fill:#2a2c2f;fill-opacity:1;stroke:none;stroke-width:300;stroke-miterlimit:4;stroke-dasharray:none;stroke-dashoffset:0;stroke-opacity:1"
       id="rect4345"
       width="31.255875"
       height="2729.6499"
       x="6868.7788"
       y="-3348.5837" />
    <path
       inkscape:connector-curvature="0"
       style="color:#000000;clip-rule:nonzero;display:inline;overflow:visible;visibility:visible;opacity:1;isolation:auto;mix-blend-mode:normal;color-interpolation:sRGB;color-interpolation-filters:linearRGB;solid-color:#000000;solid-opacity:1;fill:#ffffff;fill-opacity:0.09803922;fill-rule:nonzero;stroke:none;stroke-width:500.00006104;stroke-linecap:butt;stroke-linejoin:miter;stroke-miterlimit:4;stroke-dasharray:none;stroke-dashoffset:0;stroke-opacity:1;color-rendering:auto;image-rendering:auto;shape-rendering:auto;text-rendering:auto;enable-background:accumulate"
       d="m 5080.3006,-1211.2963 a 1657.8035,1657.8035 0 0 0 1160.5528,478.85146 1657.8035,1657.8035 0 0 0 420.9062,-55.3515 l -217.6699,-164.8731 a 1453.4116,1453.4116 0 0 1 -203.2363,15.832 1453.4116,1453.4116 0 0 1 -840.8106,-271.05266 l -319.7422,-3.4062 z"
       id="path4221-6-3" />
    <path
       inkscape:connector-curvature="0"
       style="color:#000000;clip-rule:nonzero;display:inline;overflow:visible;visibility:visible;opacity:1;isolation:auto;mix-blend-mode:normal;color-interpolation:sRGB;color-interpolation-filters:linearRGB;solid-color:#000000;solid-opacity:1;fill:#000000;fill-opacity:0.07843137;fill-rule:nonzero;stroke:none;stroke-width:500.00006104;stroke-linecap:butt;stroke-linejoin:miter;stroke-miterlimit:4;stroke-dasharray:none;stroke-dashoffset:0;stroke-opacity:1;color-rendering:auto;image-rendering:auto;shape-rendering:auto;text-rendering:auto;enable-background:accumulate"
       d="m 5189.0897,-1569.06 a 1336.3782,1336.3782 0 0 0 41.8047,48.8691 1336.3782,1336.3782 0 0 1 -41.8047,-48.8691 z m 118.7558,130.2207 -227.5449,227.543 319.7422,3.4062 69.1074,-95.1172 a 1336.3782,1336.3782 0 0 1 -161.3047,-135.832 z m -390.7519,43.918 a 1657.8035,1657.8035 0 0 0 79.3887,93.789 1657.8035,1657.8035 0 0 1 -79.3887,-93.789 z m 79.3887,93.789 a 1657.8035,1657.8035 0 0 0 83.8085,89.8262 1657.8035,1657.8035 0 0 1 -83.8085,-89.8262 z"
       id="path4221-6-3-6" />
  </g>
</svg>
